<mxfile host="app.diagrams.net" modified="2023-08-24T07:21:26.107Z" agent="Mozilla/5.0 (Windows NT 10.0; Win64; x64) AppleWebKit/537.36 (KHTML, like Gecko) Chrome/115.0.0.0 Safari/537.36" etag="kRWf15eNp46OItqmWtj6" version="21.6.9" type="github">
  <diagram id="C5RBs43oDa-KdzZeNtuy" name="Page-1">
    <mxGraphModel dx="989" dy="523" grid="1" gridSize="10" guides="1" tooltips="1" connect="1" arrows="1" fold="1" page="1" pageScale="1" pageWidth="827" pageHeight="1169" math="0" shadow="0">
      <root>
        <mxCell id="WIyWlLk6GJQsqaUBKTNV-0" />
        <mxCell id="WIyWlLk6GJQsqaUBKTNV-1" parent="WIyWlLk6GJQsqaUBKTNV-0" />
        <mxCell id="zkfFHV4jXpPFQw0GAbJ--0" value="ScriptEngine" style="swimlane;fontStyle=2;align=center;verticalAlign=top;childLayout=stackLayout;horizontal=1;startSize=26;horizontalStack=0;resizeParent=1;resizeLast=0;collapsible=1;marginBottom=0;rounded=0;shadow=0;strokeWidth=1;" parent="WIyWlLk6GJQsqaUBKTNV-1" vertex="1">
          <mxGeometry x="110" y="120" width="280" height="136" as="geometry">
            <mxRectangle x="230" y="140" width="160" height="26" as="alternateBounds" />
          </mxGeometry>
        </mxCell>
        <mxCell id="zkfFHV4jXpPFQw0GAbJ--1" value="Tcl_Interp* _interp; " style="text;align=left;verticalAlign=top;spacingLeft=4;spacingRight=4;overflow=hidden;rotatable=0;points=[[0,0.5],[1,0.5]];portConstraint=eastwest;" parent="zkfFHV4jXpPFQw0GAbJ--0" vertex="1">
          <mxGeometry y="26" width="280" height="24" as="geometry" />
        </mxCell>
        <mxCell id="zkfFHV4jXpPFQw0GAbJ--4" value="" style="line;html=1;strokeWidth=1;align=left;verticalAlign=middle;spacingTop=-1;spacingLeft=3;spacingRight=3;rotatable=0;labelPosition=right;points=[];portConstraint=eastwest;" parent="zkfFHV4jXpPFQw0GAbJ--0" vertex="1">
          <mxGeometry y="50" width="280" height="8" as="geometry" />
        </mxCell>
        <mxCell id="ye_yGqBg5hPFSyAIjg0Y-1" value="Tcl_Command createCmd();" style="text;align=left;verticalAlign=top;spacingLeft=4;spacingRight=4;overflow=hidden;rotatable=0;points=[[0,0.5],[1,0.5]];portConstraint=eastwest;" vertex="1" parent="zkfFHV4jXpPFQw0GAbJ--0">
          <mxGeometry y="58" width="280" height="26" as="geometry" />
        </mxCell>
        <mxCell id="ye_yGqBg5hPFSyAIjg0Y-4" value="int evalScriptFile(const char* file_name)" style="text;align=left;verticalAlign=top;spacingLeft=4;spacingRight=4;overflow=hidden;rotatable=0;points=[[0,0.5],[1,0.5]];portConstraint=eastwest;" vertex="1" parent="zkfFHV4jXpPFQw0GAbJ--0">
          <mxGeometry y="84" width="280" height="26" as="geometry" />
        </mxCell>
        <mxCell id="zkfFHV4jXpPFQw0GAbJ--5" value="int evalScriptFile(const char* file_name)" style="text;align=left;verticalAlign=top;spacingLeft=4;spacingRight=4;overflow=hidden;rotatable=0;points=[[0,0.5],[1,0.5]];portConstraint=eastwest;" parent="zkfFHV4jXpPFQw0GAbJ--0" vertex="1">
          <mxGeometry y="110" width="280" height="26" as="geometry" />
        </mxCell>
        <mxCell id="zkfFHV4jXpPFQw0GAbJ--6" value="Student" style="swimlane;fontStyle=0;align=center;verticalAlign=top;childLayout=stackLayout;horizontal=1;startSize=26;horizontalStack=0;resizeParent=1;resizeLast=0;collapsible=1;marginBottom=0;rounded=0;shadow=0;strokeWidth=1;" parent="WIyWlLk6GJQsqaUBKTNV-1" vertex="1">
          <mxGeometry x="120" y="360" width="160" height="138" as="geometry">
            <mxRectangle x="130" y="380" width="160" height="26" as="alternateBounds" />
          </mxGeometry>
        </mxCell>
        <mxCell id="zkfFHV4jXpPFQw0GAbJ--7" value="Student Number" style="text;align=left;verticalAlign=top;spacingLeft=4;spacingRight=4;overflow=hidden;rotatable=0;points=[[0,0.5],[1,0.5]];portConstraint=eastwest;" parent="zkfFHV4jXpPFQw0GAbJ--6" vertex="1">
          <mxGeometry y="26" width="160" height="26" as="geometry" />
        </mxCell>
        <mxCell id="zkfFHV4jXpPFQw0GAbJ--8" value="Average Mark" style="text;align=left;verticalAlign=top;spacingLeft=4;spacingRight=4;overflow=hidden;rotatable=0;points=[[0,0.5],[1,0.5]];portConstraint=eastwest;rounded=0;shadow=0;html=0;" parent="zkfFHV4jXpPFQw0GAbJ--6" vertex="1">
          <mxGeometry y="52" width="160" height="26" as="geometry" />
        </mxCell>
        <mxCell id="zkfFHV4jXpPFQw0GAbJ--9" value="" style="line;html=1;strokeWidth=1;align=left;verticalAlign=middle;spacingTop=-1;spacingLeft=3;spacingRight=3;rotatable=0;labelPosition=right;points=[];portConstraint=eastwest;" parent="zkfFHV4jXpPFQw0GAbJ--6" vertex="1">
          <mxGeometry y="78" width="160" height="8" as="geometry" />
        </mxCell>
        <mxCell id="zkfFHV4jXpPFQw0GAbJ--10" value="Is Eligible To Enroll" style="text;align=left;verticalAlign=top;spacingLeft=4;spacingRight=4;overflow=hidden;rotatable=0;points=[[0,0.5],[1,0.5]];portConstraint=eastwest;fontStyle=4" parent="zkfFHV4jXpPFQw0GAbJ--6" vertex="1">
          <mxGeometry y="86" width="160" height="26" as="geometry" />
        </mxCell>
        <mxCell id="zkfFHV4jXpPFQw0GAbJ--11" value="Get Seminars Taken" style="text;align=left;verticalAlign=top;spacingLeft=4;spacingRight=4;overflow=hidden;rotatable=0;points=[[0,0.5],[1,0.5]];portConstraint=eastwest;" parent="zkfFHV4jXpPFQw0GAbJ--6" vertex="1">
          <mxGeometry y="112" width="160" height="26" as="geometry" />
        </mxCell>
        <mxCell id="zkfFHV4jXpPFQw0GAbJ--12" value="" style="endArrow=block;endSize=10;endFill=0;shadow=0;strokeWidth=1;rounded=0;edgeStyle=elbowEdgeStyle;elbow=vertical;" parent="WIyWlLk6GJQsqaUBKTNV-1" source="zkfFHV4jXpPFQw0GAbJ--6" target="zkfFHV4jXpPFQw0GAbJ--0" edge="1">
          <mxGeometry width="160" relative="1" as="geometry">
            <mxPoint x="200" y="203" as="sourcePoint" />
            <mxPoint x="200" y="203" as="targetPoint" />
          </mxGeometry>
        </mxCell>
        <mxCell id="zkfFHV4jXpPFQw0GAbJ--13" value="Professor" style="swimlane;fontStyle=0;align=center;verticalAlign=top;childLayout=stackLayout;horizontal=1;startSize=26;horizontalStack=0;resizeParent=1;resizeLast=0;collapsible=1;marginBottom=0;rounded=0;shadow=0;strokeWidth=1;" parent="WIyWlLk6GJQsqaUBKTNV-1" vertex="1">
          <mxGeometry x="330" y="360" width="160" height="70" as="geometry">
            <mxRectangle x="340" y="380" width="170" height="26" as="alternateBounds" />
          </mxGeometry>
        </mxCell>
        <mxCell id="zkfFHV4jXpPFQw0GAbJ--14" value="Salary" style="text;align=left;verticalAlign=top;spacingLeft=4;spacingRight=4;overflow=hidden;rotatable=0;points=[[0,0.5],[1,0.5]];portConstraint=eastwest;" parent="zkfFHV4jXpPFQw0GAbJ--13" vertex="1">
          <mxGeometry y="26" width="160" height="26" as="geometry" />
        </mxCell>
        <mxCell id="zkfFHV4jXpPFQw0GAbJ--15" value="" style="line;html=1;strokeWidth=1;align=left;verticalAlign=middle;spacingTop=-1;spacingLeft=3;spacingRight=3;rotatable=0;labelPosition=right;points=[];portConstraint=eastwest;" parent="zkfFHV4jXpPFQw0GAbJ--13" vertex="1">
          <mxGeometry y="52" width="160" height="8" as="geometry" />
        </mxCell>
        <mxCell id="zkfFHV4jXpPFQw0GAbJ--16" value="" style="endArrow=block;endSize=10;endFill=0;shadow=0;strokeWidth=1;rounded=0;edgeStyle=elbowEdgeStyle;elbow=vertical;" parent="WIyWlLk6GJQsqaUBKTNV-1" source="zkfFHV4jXpPFQw0GAbJ--13" target="zkfFHV4jXpPFQw0GAbJ--0" edge="1">
          <mxGeometry width="160" relative="1" as="geometry">
            <mxPoint x="210" y="373" as="sourcePoint" />
            <mxPoint x="310" y="271" as="targetPoint" />
          </mxGeometry>
        </mxCell>
        <mxCell id="zkfFHV4jXpPFQw0GAbJ--17" value="UserShell&#xa;&#xa;" style="swimlane;fontStyle=0;align=center;verticalAlign=top;childLayout=stackLayout;horizontal=1;startSize=26;horizontalStack=0;resizeParent=1;resizeLast=0;collapsible=1;marginBottom=0;rounded=0;shadow=0;strokeWidth=1;" parent="WIyWlLk6GJQsqaUBKTNV-1" vertex="1">
          <mxGeometry x="508" y="120" width="390" height="140" as="geometry">
            <mxRectangle x="508" y="120" width="160" height="26" as="alternateBounds" />
          </mxGeometry>
        </mxCell>
        <mxCell id="zkfFHV4jXpPFQw0GAbJ--18" value="static int userMain(const char* file_path) {&#xa;auto* script_engine = ScriptEngine::getOrCreateInstance();&#xa;&#xa;//启动tcl解释器&#xa;Tcl_MainEx(argc, argv, initUserSetting, script_engine-&gt;get_interp());&#xa;}" style="text;align=left;verticalAlign=top;spacingLeft=4;spacingRight=4;overflow=hidden;rotatable=0;points=[[0,0.5],[1,0.5]];portConstraint=eastwest;" parent="zkfFHV4jXpPFQw0GAbJ--17" vertex="1">
          <mxGeometry y="26" width="390" height="114" as="geometry" />
        </mxCell>
        <mxCell id="ye_yGqBg5hPFSyAIjg0Y-6" style="edgeStyle=orthogonalEdgeStyle;rounded=0;orthogonalLoop=1;jettySize=auto;html=1;exitX=0;exitY=0.5;exitDx=0;exitDy=0;entryX=1;entryY=0.5;entryDx=0;entryDy=0;" edge="1" parent="WIyWlLk6GJQsqaUBKTNV-1" source="zkfFHV4jXpPFQw0GAbJ--18" target="zkfFHV4jXpPFQw0GAbJ--1">
          <mxGeometry relative="1" as="geometry" />
        </mxCell>
        <mxCell id="ye_yGqBg5hPFSyAIjg0Y-7" value="Object" style="html=1;whiteSpace=wrap;" vertex="1" parent="WIyWlLk6GJQsqaUBKTNV-1">
          <mxGeometry x="360" y="170" width="110" height="50" as="geometry" />
        </mxCell>
        <mxCell id="ye_yGqBg5hPFSyAIjg0Y-12" value="&lt;h1&gt;To do:&lt;/h1&gt;&lt;div&gt;&lt;br&gt;&lt;/div&gt;1.函数&lt;span style=&quot;font-family: &amp;quot;Segoe WPC&amp;quot;, &amp;quot;Segoe UI&amp;quot;, sans-serif; font-size: 13px;&quot;&gt;调&lt;/span&gt;&lt;span style=&quot;font-family: &amp;quot;Segoe WPC&amp;quot;, &amp;quot;Segoe UI&amp;quot;, sans-serif; font-size: 13px;&quot;&gt;用&lt;/span&gt;&lt;span style=&quot;font-size: 13px; border-radius: 4px; padding: 1px 4px; word-break: break-all; font-family: Consolas, &amp;quot;Courier New&amp;quot;, monospace;&quot;&gt;Tcl_MainEx&lt;/span&gt;&lt;span style=&quot;font-family: &amp;quot;Segoe WPC&amp;quot;, &amp;quot;Segoe UI&amp;quot;, sans-serif; font-size: 13px;&quot;&gt;函数&lt;/span&gt;&lt;span style=&quot;font-family: &amp;quot;Segoe WPC&amp;quot;, &amp;quot;Segoe UI&amp;quot;, sans-serif; font-size: 13px;&quot;&gt;，将&lt;/span&gt;&lt;span style=&quot;font-size: 13px; border-radius: 4px; padding: 1px 4px; word-break: break-all; font-family: Consolas, &amp;quot;Courier New&amp;quot;, monospace;&quot;&gt;argc&lt;/span&gt;&lt;span style=&quot;font-family: &amp;quot;Segoe WPC&amp;quot;, &amp;quot;Segoe UI&amp;quot;, sans-serif; font-size: 13px;&quot;&gt;、&lt;/span&gt;&lt;span style=&quot;font-size: 13px; border-radius: 4px; padding: 1px 4px; word-break: break-all; font-family: Consolas, &amp;quot;Courier New&amp;quot;, monospace;&quot;&gt;argv&lt;/span&gt;&lt;span style=&quot;font-family: &amp;quot;Segoe WPC&amp;quot;, &amp;quot;Segoe UI&amp;quot;, sans-serif; font-size: 13px;&quot;&gt;、&lt;/span&gt;&lt;span style=&quot;font-size: 13px; border-radius: 4px; padding: 1px 4px; word-break: break-all; font-family: Consolas, &amp;quot;Courier New&amp;quot;, monospace;&quot;&gt;initUserSetting&lt;/span&gt;&lt;span style=&quot;font-family: &amp;quot;Segoe WPC&amp;quot;, &amp;quot;Segoe UI&amp;quot;, sans-serif; font-size: 13px;&quot;&gt;和&lt;/span&gt;&lt;span style=&quot;font-family: &amp;quot;Segoe WPC&amp;quot;, &amp;quot;Segoe UI&amp;quot;, sans-serif; font-size: 13px;&quot;&gt;T&lt;/span&gt;&lt;span style=&quot;font-family: &amp;quot;Segoe WPC&amp;quot;, &amp;quot;Segoe UI&amp;quot;, sans-serif; font-size: 13px;&quot;&gt;cl&lt;/span&gt;&lt;span style=&quot;font-family: &amp;quot;Segoe WPC&amp;quot;, &amp;quot;Segoe UI&amp;quot;, sans-serif; font-size: 13px;&quot;&gt;解&lt;/span&gt;&lt;span style=&quot;font-family: &amp;quot;Segoe WPC&amp;quot;, &amp;quot;Segoe UI&amp;quot;, sans-serif; font-size: 13px;&quot;&gt;释&lt;/span&gt;&lt;span style=&quot;font-family: &amp;quot;Segoe WPC&amp;quot;, &amp;quot;Segoe UI&amp;quot;, sans-serif; font-size: 13px;&quot;&gt;器&lt;/span&gt;&lt;span style=&quot;font-family: &amp;quot;Segoe WPC&amp;quot;, &amp;quot;Segoe UI&amp;quot;, sans-serif; font-size: 13px;&quot;&gt;作&lt;/span&gt;&lt;span style=&quot;font-family: &amp;quot;Segoe WPC&amp;quot;, &amp;quot;Segoe UI&amp;quot;, sans-serif; font-size: 13px;&quot;&gt;为&lt;/span&gt;&lt;span style=&quot;font-family: &amp;quot;Segoe WPC&amp;quot;, &amp;quot;Segoe UI&amp;quot;, sans-serif; font-size: 13px;&quot;&gt;参数&lt;/span&gt;&lt;span style=&quot;font-family: &amp;quot;Segoe WPC&amp;quot;, &amp;quot;Segoe UI&amp;quot;, sans-serif; font-size: 13px;&quot;&gt;传&lt;/span&gt;&lt;span style=&quot;font-family: &amp;quot;Segoe WPC&amp;quot;, &amp;quot;Segoe UI&amp;quot;, sans-serif; font-size: 13px;&quot;&gt;递&lt;/span&gt;&lt;span style=&quot;font-family: &amp;quot;Segoe WPC&amp;quot;, &amp;quot;Segoe UI&amp;quot;, sans-serif; font-size: 13px;&quot;&gt;给&lt;/span&gt;&lt;span style=&quot;font-family: &amp;quot;Segoe WPC&amp;quot;, &amp;quot;Segoe UI&amp;quot;, sans-serif; font-size: 13px;&quot;&gt;它&lt;/span&gt;&lt;span style=&quot;font-family: &amp;quot;Segoe WPC&amp;quot;, &amp;quot;Segoe UI&amp;quot;, sans-serif; font-size: 13px;&quot;&gt;。这&lt;/span&gt;&lt;span style=&quot;font-family: &amp;quot;Segoe WPC&amp;quot;, &amp;quot;Segoe UI&amp;quot;, sans-serif; font-size: 13px;&quot;&gt;将&lt;/span&gt;&lt;span style=&quot;font-family: &amp;quot;Segoe WPC&amp;quot;, &amp;quot;Segoe UI&amp;quot;, sans-serif; font-size: 13px;&quot;&gt;启&lt;/span&gt;&lt;span style=&quot;font-family: &amp;quot;Segoe WPC&amp;quot;, &amp;quot;Segoe UI&amp;quot;, sans-serif; font-size: 13px;&quot;&gt;动&lt;/span&gt;&lt;span style=&quot;font-family: &amp;quot;Segoe WPC&amp;quot;, &amp;quot;Segoe UI&amp;quot;, sans-serif; font-size: 13px;&quot;&gt;T&lt;/span&gt;&lt;span style=&quot;font-family: &amp;quot;Segoe WPC&amp;quot;, &amp;quot;Segoe UI&amp;quot;, sans-serif; font-size: 13px;&quot;&gt;cl&lt;/span&gt;&lt;span style=&quot;font-family: &amp;quot;Segoe WPC&amp;quot;, &amp;quot;Segoe UI&amp;quot;, sans-serif; font-size: 13px;&quot;&gt;解&lt;/span&gt;&lt;span style=&quot;font-family: &amp;quot;Segoe WPC&amp;quot;, &amp;quot;Segoe UI&amp;quot;, sans-serif; font-size: 13px;&quot;&gt;释&lt;/span&gt;&lt;span style=&quot;font-family: &amp;quot;Segoe WPC&amp;quot;, &amp;quot;Segoe UI&amp;quot;, sans-serif; font-size: 13px;&quot;&gt;器&lt;/span&gt;&lt;span style=&quot;font-family: &amp;quot;Segoe WPC&amp;quot;, &amp;quot;Segoe UI&amp;quot;, sans-serif; font-size: 13px;&quot;&gt;，并&lt;/span&gt;&lt;span style=&quot;font-family: &amp;quot;Segoe WPC&amp;quot;, &amp;quot;Segoe UI&amp;quot;, sans-serif; font-size: 13px;&quot;&gt;执行&lt;/span&gt;&lt;span style=&quot;font-family: &amp;quot;Segoe WPC&amp;quot;, &amp;quot;Segoe UI&amp;quot;, sans-serif; font-size: 13px;&quot;&gt;指&lt;/span&gt;&lt;span style=&quot;font-family: &amp;quot;Segoe WPC&amp;quot;, &amp;quot;Segoe UI&amp;quot;, sans-serif; font-size: 13px;&quot;&gt;定&lt;/span&gt;&lt;span style=&quot;font-family: &amp;quot;Segoe WPC&amp;quot;, &amp;quot;Segoe UI&amp;quot;, sans-serif; font-size: 13px;&quot;&gt;的&lt;/span&gt;&lt;span style=&quot;font-family: &amp;quot;Segoe WPC&amp;quot;, &amp;quot;Segoe UI&amp;quot;, sans-serif; font-size: 13px;&quot;&gt;脚&lt;/span&gt;&lt;span style=&quot;font-family: &amp;quot;Segoe WPC&amp;quot;, &amp;quot;Segoe UI&amp;quot;, sans-serif; font-size: 13px;&quot;&gt;本&lt;/span&gt;&lt;span style=&quot;font-family: &amp;quot;Segoe WPC&amp;quot;, &amp;quot;Segoe UI&amp;quot;, sans-serif; font-size: 13px;&quot;&gt;文件&lt;br&gt;2.目前了解c++解析tcl文件：通过引入#include&amp;lt;tcl.h&amp;gt;&lt;br&gt;&amp;nbsp; &amp;nbsp; c++程序通过tcl方式与用户交互&lt;br&gt;&lt;/span&gt;" style="text;html=1;strokeColor=none;fillColor=none;spacing=5;spacingTop=-20;whiteSpace=wrap;overflow=hidden;rounded=0;" vertex="1" parent="WIyWlLk6GJQsqaUBKTNV-1">
          <mxGeometry x="1220" y="50" width="360" height="230" as="geometry" />
        </mxCell>
        <mxCell id="ye_yGqBg5hPFSyAIjg0Y-13" value="" style="shape=image;verticalLabelPosition=bottom;labelBackgroundColor=default;verticalAlign=top;aspect=fixed;imageAspect=0;image=data:image/png,iVBORw0KGgoAAAANSUhEUgAAAa0AAADDCAYAAAAx306pAAAgAElEQVR4Ae2d/Xcb1bnvz58xi5JSOrkt5pqu0uAaQs1RTk6iC3UTMG9qYgRJDcQn5DrtiQtBodbNSVSXI6/YInFEUoWQipMlg5EhzGqypsuglXRSd83/9L1rz/ubbL34ZUb+/qAlWdozs/ezv7M/+9nPs8f/IkkS+KINqAFqgBqgBrZCA48++igeeuihll//shWV5DV5c1AD1AA1QA0IDRBa9BzpOVMD1AA1kBgNbGNoZVBe1qEv5BLTWZxpcqZJDVAD210DhBahRWhzlk0NUAOJ0UDCoZVG7pqCRrUTb4me1nafsbH99FqogeRpIOHQ6gY83RybvI7mzck+owaogV7QwMZBKzWM4f42RZLKIJNq55huwNPNse3UkWV74UZhG6hjaiAeGtggaGXNJAe1jLFWwZWaRLWhQ1eKGGlhfTkz34Cu66FX7YxrWHn/BEqLKrQVt1xDKWHMOD+hxZvQ1QptQVtQA8nQwAZBS4K8P4+apkNvBVw2sBpVTLboaQ2MTiI/VUL9ng79dgX5qbzxGh82DS+PlqEKqK00UJ8vmL9Pl1FXq8gRWokJunIgScZAwn5iP22WBjYMWqIBLYGrA2C5xmniLckTqApgajXkmkKwybEteHnu9SlU2oIaoAaogc3UwIZCy2hIKtfc40qNo6Lq0NvwsPzGiQaPfKYGXddQPSWv4lFEH+s/P8VIe1AD1AA1ECcNbDy0hOcSBa6ugSWEFA0eM96loDC4mtiij41T57Auq/Uff6M+qIHtqIHNgZYNLhF/EjGuoTGUhYelVjDedPmuFUFGg8eEVh15ebVzRB+7HUXANq+mE/5GfVADcdLA5kHLCy6RINE1sISQosGTnlHM5cGTq4kt+tg4dQ7rslr/8TfqgxrYjhrYXGgZ4BpDbiqHsa48LFusFnjUkj9NPlWAYoCxjGxTb4vQ2o6CZ5vte4fv1EIyNbD50BLgWreXjNyC2IOlof5RHvnpKkqnzfOnztSgCXDdU1GdMdPh8zMVpryvm+3Xsx95rvW7J2hL2rK3NZBwaIkkj0lURXzM2pNVOWF3mIz0iRLqquZuQNYaUG7kMGwM3PS0eHPbWuE7tUANJEUDyYcWPYd19Fx54yblxmU9qdXtqgFCi9Aj9KgBaoAaSIwGCC2KNTFi3a4zS7abXhU14GqA0CK0CC1qgBqgBhKjAUKLYk2MWDnbdGebtAVtsV01QGgRWoQWNUANUAOJ0QChRbEmRqzbdWbJdtOrogZcDRBahBahRQ1QA9RAYjRAaFGsiRErZ5vubJO2oC22qwY2BVqZTIYDI+FIDVAD1AA10LUGCC2KqGsRbdcZH9tNb4ca2HwNEFqEFqFFDVAD1EBiNEBoUayJEStntZs/q6XNafO4aYDQIrQILWqAGqAGEqMBQotiTYxY4zbjY33ohVADm68BQovQIrSoAWqAGkiMBggtijUxYuWsdvNntbQ5bR43DWwxtH6IB376PPpHz+PJ9M9aGDx3YEc6j6HRN/Djnz7WQnkKLm6CY32oSWqAGuhGA1sKrf7f38abH9uvW9j3y9VBtOOXF5F1yt/Gm79/s4fAlUF5WYe+kNu8NskTqN7Tod8uIUOPc/PsTlvT1tRAxxqIEbRu483LNTz91A+jG/NUHi9dtgFnvXcBrb7hCZRuKmhoOnTd89I0VN+1ZkKHymgYv2monpKj6+UV34ESVKN8A+VD7c6m1h9auQXRrhpy3jp6Pw/mUCO01u5Xr834mfaiBrZUA/GClvCiLtfw5BM7/EZ5IgJYomxH0OrD2KwCTcBlRYO6VEN1voD8TAW1mzXUVQ21M0Fo6dCX8hhYVawyJqqaBcCEQGvV9qwC3aNF1FUFpbbBHHXOMRSXVCiznT3qK326AqVRbQ7mTtvI4/z3IO1Be8REA/GDloDR3EX85BELXI+8iX1zAQ/LXiJsG1oysvOqARZtsYBMf9Qg6vnO8rS0ewJGKkoHPL8FO3Awj7quo7HcgK73OLTO1DpsY5T9cqgJu813Bq3MvLD3Kt5ksJ/4NwdfaiDRGogntCxw9f90FWB14mnZEFrIIdWKcK3yjWsVA0hadRJyk+OGZwUMFVSuEVrtBVkJrfbsFQV+fkcbbh8NxAhat5Bt5lFZntVv5m7hDdvLahtaMiaN5TsFhVSLHWxDaz5rHVtHfjDiWHkSVU2HgFrWmPkHPK3+DPI3/PGzxlIZ4756RMW0XM+wUZ30gFbGyFQVSsONxTWUKvIv+ONua8a0pKhrSkgdLxnLpE6sT1NRPZ2GJJmAcb63Y4HLZSeRo/mxYbuZ9XPbYJ63gfKRCcOeeqOCcdl7XAYlVYeuVTFxxI43Bo7fzESWJhMYDqDePuNn6mF9NRAjaNXw5L+u4lnNXUT/v+bxUsfQGkdFJB3cKqwRm/IY2IFWBpL1WZ0dDrnWA2frxnJZ5agEc7nKDy1jcF5poC5iZ1N5FK5aMTXVm7UXBIiMkfN1I/am3fR6hh6QLZZRmMojP12BItqmKyh6ljA7gZZ8smpe81bFPPdUEVWlAdVYvhvGuLjeNeFVaqjP5o325N/NGjZd/ViPXa3BfviYOL5iJK9oiyXzXFOTyA5KGDhdM+qhzLj2Tp1XjOtWT8qQBrOYnMqjtGgu3VZEvcTrmFueg0XY5rQJbZJ0DcQLWj+TID0xieGgxzV3DbtEcsbPuoGW6SVo18ZD0GnaiV5oSQPIL+mImv0bqeq3CoYnFAmtjyoBr0rG+DUx2DZQHrVvIj+0UmfMQVsLLmXadSpn/UuVqTzqhrc34bSvE2jlbgr41ZH3eTgy+vo9XlyTmFZLx4a8k2bLgynkFjToWg054d2KTEerfd4lWsa0bP3wvel9HNIcbZVkW8UPWkJg3mxBbzbhOkCrrYC/DQgrSUA+ZXoh9bMDDhjM79yU+ChoRQrEGPh1N1PRs1SXOm55Hwt5pH3wkCzYKSiElill5Bd16J6luk6gNXZVxOQ01KbSfih6b/wm0GrpWO95jM/NoCVBskDcuDZuLs+KZcGAPQgtDsCR91dIZ7RTr9gpntASgts5iB2PDGLHTs++rXWAlr6Ybz4YB4UegJZkg+V2CcNGWdf7GrOOjYSWPIDsySIqVkq9mY1oxmKc9Hr73MuquVymlJANDNBCdCaIAnEcO7ZkvLuZdJ1AS0pNoio2OYtzNRRUp8cxHMyybAKtlo4N2tiKkzWbTJhLgqI+GoxlwcDxhBYH414ZjNmO1rQcX2gFBiejQ7uCVhpFxQziT0bAIFIwIWhJ8MavpKMVY/OxN+4SglbK2sAr0rqVOmo3zDhUriziMxGe1q0qqiLBQlNQHPUsyVn2MEB0r46SHcMJvY9bQLUB50Is3Eb/kqT7ex+GT5ZQU4TXJfazqSh569IMWkYd1zg21K+reFqSG9syl1LD9iC0WrvR3b5ledoi2RrYRtCygaNDnQ/Eg0IDqdWpEdCSPJmCRjaiVoUXgkFoOX97B31JgjwlkjcioCWy3wToxJM6tBry+/0DtbmBOWp5MCzEjjytgC36Xi1CEXXxLDtKq0LLrUfksYHz2xmJkZ6WZQetWkBJTDiWyyHvk9By7c3BmLbYDhrYVtASy3tGyrSuQZkdQ19oAA2IPgpakgRzT5YGTdPRuDrmxLeEYBxIWU+LiE5OSKFwq8nyoJWyLY+WoK6Y4Mp5UuPtuFojmIgR0ZZOoNXX3+drjyRZsTIRT7KvYUBLR+20314tHWufw3k3PS39ZvCZi/5EDHnUTHEPttu0t4rSS/66bIebl21kn29HDWwzaIng/jgqt62YzYqK+s0KimKJzXiMUx3KcvgxTiEvwHr6RTDFPApa5nKiDu121bzOVBG1ZR2KYj6ZIxTT8uwzEgO18SxDkUHngMsazHXvOc3615WGJ7HDXh5U4aSDe5cSjdTw8PKgAJ3Y82XYxJOeL5IhnKw9C+a6WjXS4ktXi8Y+rTWPPWQ+m1Gk8LuPxLLqoKuoTueR/6iC4iEJqSmR7q+hPpWyICoyLq2N2x6vVbYAqi2JlPkCqh8F4ceBbTsObGxz7+p+S6G189UL2Pc7+3Ue/Y+sYehH3sDTTvkL2PfqLwNewRrHO7P7PmTOVvwbaI3YjQZtWUHpqHWeJp6W8D7E0mDUEzKCnpYkpTA+X0dDeE1WfKg+PYY+21uxn3NoJ2J4oCVuPDv1Xb/nAZecxsRsHar3Yb/3GlBuFDDmwM2GlnVdcW3vy7hOGFqZs3Woxp4vq/w9FbXpMc/GZmEbGdkZT5uWCkgLL3OtYyOhJUEeLaJub5ReqaPwVgGKqKu1jcAZgKy0d/8yYQqTN8wJgGhf46qb8u8c5/R7q/pgOdqOGoirBrYUWnE1CuvFG5YaoAaogXhqgNDiLLxDbzWeguZAw36hBnpbA4QWoUVoUQPUADWQGA0QWhRrYsTKGXRvz6DZv+zfVjRAaBFahBY1QA1QA4nRAKFFsSZGrK3MwliGs3VqoLc1QGgRWoQWNUANUAOJ0QChRbEmRqycQff2DJr9y/5tRQOEFqFFaFED1AA1kBgNEFoUa2LE2sosjGU4W6cGelsDhBahRWhRA9QANZAYDRBaFGtixMoZdG/PoNm/7N9WNEBoEVqEFjVADVADidEAoUWxJkasrczCWIazdWqgtzVAaBFahBY1QA1QA4nRAKFFsSZGrJxB9/YMmv3L/m1FA4QWoUVoUQPUADWQGA3EE1oP/Bg7Hhk0Xz/YkRhjtjJLYBnOJqkBaoAa6FwD8YLWI6/gydyX+M3Ht/Gm5/XGHy9g188fSw68DhShrOjQbuYw0GszuF5uW6/1FduTnDGDfdVyX8UGWjv2XcArl/2w8oJLfD746i9abljTmUx/Bvmrdaj3dOi657VSxeR6CedQCepGQetQGQ1vvX2fa8itVxuanWcj29bsmvy+e93ThrRhj2ggHtB6Io+X1gDWb/6Yxw8f6NylNCCWyqGmmaBSl2qozORRmK+idrMOVduEAb8N0aRPV6A0qmEIWdDSFkvIT+UDr3EMt3GNpmDnOTjAUQPUQEw1EANo/RiP5/weVjZ3Ej80Ylk78ED/G0h98CH6dnYJLEnCRFWDrqsoj8qxF2RmvgFdjwCpBa3GfCb2bSAUu9csbUgbUgN+DWw9tB6ZxEFP/OrNmfPY6XhUP8YP08fR/8SPfQP0zlcvYN/vJrGzrZlABuVlHfpyGZm2jvMbbLMERGhtjd03q395HfYvNdCZBrYeWr/62Jd08cLooAdQe/Dkn27jpaN7PN9J6P+98Mwuor8t+AwgvySWBhUUUq0Zq+/VPKpKA9qKFfta0aBWc0gb182hputozGcxMlUzYli63kD5kDi3/ZvrDbkQSmF8VixH2udsQLmRx4hs1alZzGohZ9qgRU/LuZ6cxsR8HQ27DZqK6rtpyAHbyfsnUFpU3bY2FFTeTSO/IOrp9fjCbZPO1GC2vQ+ZszVf2+qzY+gLXEuSR5C/obh1WgnYIFje83eonqIPlBLG2izDAaO1e4B2op3ipoEth9YPj9Z80Nr3S0skP5nE8IVbeOPybfzm0i0cvvAh+vZ9iMMXvkTWin9lL3yJw+8c9gFtNQPLo2WoInFhRUX1dCY8mHoGvtSZGjRR9p6K6owVO5qpQlkqWZ6aNXgrChpLBWT6veIOD+wmROooz6vQl+soT4tzFlBeFMuAOrSFHFLi+oNZTE7lUVo0lzIrdtzq2HAH0FJQW9Cg3aqgIM4zXYFiwLKBylFPfe1Y30oD9fmCEScrGKDToBnlW4NWfUG0rYaiUeciag0TzPWzA24fyVmUVfG951pXFdPWSnHVmJzbf+6x+eky6qob+2ulzGoa4W8eXXjuB9qFdomLBuILrR/sR//B95G+cBuHf/8+fnLweTz01CT2/e4CDs4IT+tLHPzdBex79ZfugNjCTdZ3tATFzhxs1FGJgpdI6xbAUsvI2h5Q6NwmmHStislQmWbQ0qEt5k04OeeTMX5NgEtD9aR7YzieklPO+q2ZJ2Z4fUHPzgND6zzysYqRfahVJyy7DSC3EB3rcwDQkqcVYa9UwbSjUrS8UwlmuxqhuGJqqg4tYAPfTSJPoCoAKhJmmnnKrZQJ2pN/t3X/+PqEtqPttkADWw4tKbA8+NyL3vjVei4PukCQJLGMVXXT3m9XMO4ZCM2BVUXpgPeY4GcLWov50FJb8+VBDZVjwfNIkJ41IdkoZ52bYC1oRWUPTo66Ho0Lh+D1rMHfrrdstkOrTka0Q0Z+sdXlQR31qWCCSxpFxYwjZg1xj6MiJgy3CuH9a3Ie9QB4vQOkbCxBaqieCl7DbV8rZbzn5GfXdrQFbZEUDWw9tAKJGL/5r0k85NB7Bx740SB2BJ6K0VkiRoQo5QFkp8UMX8zgq5iwPKaciOPcq2DcqUfEsXbcygMat9ObeVp15ENemTi3BUA7biXZHol3Wc6qQ7sxrVAbAgkp1vmU8y7w3HZIMGzRkqdlx/P8tvIfb7VT2LvZy2MDbz1MCCsoDPrP324Zb3l+bm5L2oa2iasGth5aUjjl/ZX/+wYe+r4lmu/vwa73ruHJJzbucU7m0pQOZSZteDrGQLtchukdNBNvGExuJ4d/a+o5GVAxy7tLdpsPrbCXZLbbDx3xXbhtbiJG2Fb+4612Ru4xs+KGduwuAFvTfs2gb163lTJuH4Xryt9oE2og/hqIAbQkSE+fx6+9ae/W5+yFW+4jneYuon8d9mpFirLfvzRl7udSUHx2tQ6MGLydgTb8mzmgRnsj0rGK4e3Z0BR1bAq59fa0XioZySnatXFnadK10QAKt1pdHoxumx9a1tJk1PKgY7tom6dnlFDcz62neUwrZYLH8O9oe9MutEtcNRAPaEk7ILIIg88cDD7G6ZVjz+OBNQa35obOoHijhLEnwjER29Oys9ycZAU7oy/ymmEwudcO/2ZCSEfj2nggazFlgUFB0RNDM8urKL0UuHnWG1rSGCoiy0+rI++J64m29B03kzZaT3kP1FUKLi/KmDQ2eIcTMVzbhc9h/GYndayWHNNKmci+bHJNlo2YyNBWa2qVutlQ3cQEWuJG2IGHfvUhDl7wPx3DANflGv7toH+vVvvCsWI5xr6eOqoitXumgtqSmXLuzxSUkRWp6SLu4qSni0c+1cIp75FPpmgGrQZUVXdT0KeKqIkNz7oOdT7rS4Qwkwp0aEvicU0FVD/y79OKSsQQj3UaHzYHlaaemhSIaUkSBk5b6f1iD5eV3l+8oUK7V0NtXT0tCZKdXq9rUG8UncdQFa/WoTTcGJ5dJ3XWzYiM3oZQ8aW8t1Kmfe1woKbNqIG4aCBG0LJFYSZf7Nx7HD85eBx9P/8ZHnCekGGX6ey979UcyjcVNOyNvWJ/1LKC2uwE0qEECTPDUFkW6eBW4sA9FfWZcSvzLQwmt1PDvzkQ6R9DYdECojhvQ0F1asQHLPM8KUzecMs1rlop6pan5dTJrpv1Xjtj2sa5XmjWF4aWuF7qeAl11W1rQ6ki/4K8zokYZt2iNgiLfqhOjznbAaKgJUky0if89dQ1sTE559nf1UqZzvTj9i+Ppy2oga3SQAyh1ZtiaA6ROLc3KuU9zvVl3bZqIOF1qb3N0gChFfJENkZ8iYSWPGlu6PVsDt4sYfI6G6ND2pV2TboGCC1Cq0nQ1I3rKTPWI6Q2yVZJv6lYf4KBGtg4DRBamzQQx9nTyswqsP+/mPE/uqbLqN0241uaUkzEU/E5SGzcIEHb0rZx0gChRWhh4KSZ3OA8zd5KUBGJEeEEFd7AcbqBWRfqcbtpgNDaJGhtN2GxvRxMqQFqYCM0QGgRWk1iWrzhNuKG4zmpK2qgOw0QWoQWoUUNUAPUQGI0QGhRrIkRK2eo3c1QaT/arxc0QGgRWoQWNUANUAOJ0QChRbEmRqy9MEtkG+jtUAPdaYDQIrQILWqAGqAGEqMBQotiTYxYOUPtboZK+9F+vaABQovQIrSoAWqAGkiMBggtijUxYu2FWSLbQG+HGuhOA4QWoUVoUQPUADWQGA0QWhRrYsTKGWp3M1Taj/brBQ3EE1oP7MJjD+/F4w/vxWM7ZA6qBCs1QA1QA9SAoYFYQevBh8dx/DUFH7/3ne916e3reP3RZ5Ij2gNFKCs6tJs5DPSa0LasbRmUl3XoC7kWdNBOWc6+e2H2zTZsHx3HBlp9u65g7vd+WAXhdS71bAsD1hqd159B/mod6j0duu55rVQxuV6AOVSCulHQOlRGw1tv3+cacuvVhmbn2ci2Nbum8X07IGqn7Bp6WbVOPJawoAY2WwOxgNaDfRcwswawPn7rAoYe6FIgqRxqmgkq+58eFuarqN2sQ9U2YcBvYwBMn65AaVTDELKgpS2WYPzDxqm8530cw21cY7PF1t312gFRO2W71FTP2pt26U6vtN9G2S8G0NqFw4f9Htalw1MYMmJZMnbuPIVTr13Bge93L4KJqvhvvCrKo/GPkzX9T8cWtBrzme69zkQNuO2AqJ2y3etqo25Onpd9Qw2ENbD10Hr4PKa9Max3LmG/41HtwtCu9zHSt8s3QO9JXcd7L5/HnrYGXWsgWy4n4t/HE1pBsbYDonbKBq/DvzlQUgNx1sCWQ+vB3Z/5ki6m93rjVi/i+Ph3mEm/6IPWKxnhmV3HK21BawD5JbE0qKCQak2Ufa/mUVUacP4N/YoGtZpD2rhuDjVdR2M+i5GpmhHD0vUGyofEue3fXG/IhVAK47NiOdKKp600oNzIY0S26tQsZmUnILToaTnXk9OYmK+jsWJdT1NRfTcNOWA7ef8ESouq29aGgsq7aeQXxHHepdNw26QzNZht70PmbM3XtvrsGPoC15LkEeRvKG6dgjYIljf+dkEk6lpeajgxSU2tIf+C13tup2xrWojzTcy6sQ+3kwa2HFpPpf3Zgmd+bgnwR+dx7oSKSyLW9Z8q5k5cwQGRrCG+mzSXEy+dUDH3/IQPaKt1njxahioSF1ZUVE9nwoOpZ7BMnalBE2XvqajOWHGjmSqUpZLlqVmDt6KgsVRApt9744QHdhMidZTnVejLdZSnxTkLKC+ag6+2kENKXH8wi8mpPEqL5lJmxY5ZHRs229kWtBTUFjRotyooiPNMV6AYsGygctRTXzvWt9JAfb5gxMgKBug0aEb51qBVXxBtq6Fo1LmIWsMEZf3sgNtHchZlVXzvudZVxbS1UlwlJmeB6FYNtXsalKtWPe1jGxWM2+CX2inrsYOn/1fTEX+jzaiBrdNAfKG149cY2f0h8ie+w9yhD3F49xge7z+P916+jnPvCGgpOPfydbyXyroDYguDTt/REhQ7c7BRRyUKXiKtWwBLLSPrDITBTjLBpGtVTIbKNIOWDm0xb8LJqauM8WsCXBqqJ91rOJ6SU876rZknZnh9Qc9OhwND6zzysYqRfahVbdgPILcQHetzIN+SpxVhr1TBtKNStLxTCWa7GqG4YmqqDi1gA//AYIFI11A7k/L0eZT92inr2tx/PX5Pe1ADcdTAlkMruDx4bsgbv1rP5UGvAMUyVtVNe79dwbhnydAcWFWUDniPCX62oLWYDy21NV8e1FA5FjyPBOlZE5KNsgvgtaAVlT04Oep6NC4cgtebQFV4T3a9ZbMdWnUyoh0y8outLg/qqE95l+jEddMoKjr05TKyBjTHUREThluF8P41OY96ALz+G8YCkXMuT7uOVQxPrXbG/q6dsvYxfPfbm/agPeKpgS2HlhRMxDhyHo873oWMnT8IPxWjs0SMiA6QB5CdFjN8HcJjmrA8ppyI49yrYNypR8SxdtzKAxpX5M08rTryIa9MnNsCoB23kmyPxLssZ9WhreXBiOPtpTM7IcU6n3LeBZ7bDgmGLVrytOx4nt9W/uOtdgp7N3t5bOCth2TX24att29CNrGg1VJZf3391+RvtAc1EDcNbD20pHDK+9zIKTz+PUss33sRrx9awPG+4Cx+/cRkLk3pUGbSxrKTMdBGzei9A6UNrcjU82bQioKIaIdZ3l2y23xohb0k075+6Lh19aXcO4kY4T7xH2+1M3KPmRU3tGN3PluL81ogioJaM2i1VDZc57jdpKwP+4gacDUQA2hJePCxS5jzpr1bn0WihfNUjJPX8co67NWK7Px+/9KUuZ9LQfFZ11Dh48JgcsuEf3OW64zswsB5reUtG5riPGstD/qgERrgVzneHvxtT+ulkpGcol0b98SJ7PoNoHCr1eXBVjwta2kyankwog2uPUV9CC2/Pew+4jvtsr00EAtoSZKMofSSC6gIgAl4zQyP4QdrDm7NOjCD4o0Sxp4Ie2y2p2VnuTnJCnZGX+Q1w2Byb57wbyaEdDSujQeyFlMWGBQUPTE0s7yK0kuB9oS8isDvVl2bQs8e/G1oSWOoiCw/rY68J64n2tJ33EzaaD3lPVwXv6clY9LY4B1OxHBtFz6H+RuhtbaNmtmO39N2vaOBmEBLGFTGwO4rmJ7wPx3D8LQmFbz39ItdAEuc3xr0RLBfqaMqUrtnKqjZ+318mYIysiI1XcRdnPT0PArztXDKe1vLgw2oqu6moE8VURMPgdV1qPNZXyKEbCy56dCWxOOaCqh+ZD0o1oJWVCKGeKzT+LApztahJWHgtJXeL/ZwWen9xRsqtHs11NbV05Ig2en1ugb1RtF5BFXxah1Kw10+teukztoZkYQWB97eGXjZl533ZYygZTfCTL7Y87P3cXj3+zjw6DPY6Twhwy7T2XvfqzmUbypo2Bt7dR3asoLa7ATSoQQJM8NQWRbp4FbiwD0V9ZlxK/Mt7E25Qgz/5kCkfwyFRQuI4rwNBdWpER+wzPOkMHnDLde4aqWoW9By6mTXzXq3M+ic64W8RGvwdzwt05ap4yXUVbetDaVqbNj1e0qibLht7ubicL+Ej5cQ2shs9UN1eszZDkBohW3p6ou/0RbbVwMxhFZvdkZziMS5vVEp73GuL+vGwZwa6HUNEFohT2RjRJ9IaMmT5p4uz+Re2CgAABG4SURBVObgXr8h2L6N0T/tSruulwYILUIrImtQ3GBuXE+ZsR4htUm2Wi9x8zwcKKmB3tMAobVJA3GcPa3MrAL7/4sZ/6NruozabTO+pSnFRDwVn4NT7w1O7FP2aZQGCC1CCwMnzSQM52n2nsSIcIIKb6SoG4nfURfUwOZogNDaJGhR0JsjaNqZdqYGelsDhBah1SSm1dvC58DG/qUGkqkBQovQIrSoAWqAGkiMBggtijUxYuXMOJkzY/Yb+209NdA2tAYHh9DuK5PJtH1Mu9dg+fb7hTajzagBaiBpGiC0OoBw0jqZ9eXARA1QA72iAUKL0KIXTA1QA9RAYjRAaFGsiRFrr8wU2Q56PdRA5xogtAgtQosaoAaogcRogNCiWBMjVs5OO5+d0na0Xa9ogNAitAgtaoAaoAYSowFCi2JNjFh7ZabIdtDroQY610A8ofXUs9i992XzNbSHgyrBSg1QA9QANWBoIF7Q2nsCz51dwtjHt/Gm53X0v8tIH/gVRStE++FX0PW7+PRE5zOV8CyviLqu4+4nE66NN+Q661lnnivcj7QJbdL7GogNtHb/uozRy35YecElPmfe7vLJGsZArKP+YfOOfeeTu9D1r/CnLZjVpF47iz9/eQd37+vQdc/rb1fwtl2fDYEJocXBrvk9QdvQNnHSQDyg9asZHF4DWGP/PYOhp7oUT4yhlTr5FywLUP3zLu58/QU+/WgWl6tfof71Hdz92zW8Q2i5XqBtC77TJtTAttNADKD1LPaf9XtYR87+PwwZsaw9eHL/KRz8r4vYk+oSWELcsYXWUVy+o0O//xX+lFmjnfS0tt1NGqdZLuuyxv1JiG74/bn10Np7DhlP/OrN2Vk843hUz2Lo8AfY+6tnfYZ45u0yRnLn8Ey7AokttMzlOX2p6Gtn5ABBaK1to3Z1wfK0KTWQGA1sPbRev+5Luvj1f7zsMd5reG7mNg5PvOb5bgh7/yA8swr2tiu0DqGVemsWn9+5i/v/tOJMYgnvymlfnQYzH+DPX3/rlrn/Lb658gEynjo68bLMB/hUEbEzHSaoTuOzuzr0uzfx/loepQOt5/DOha+wbMe//nkX33ziv54BvdRxzNTu4K637rVZvO27TjcxLVGPL3Dnu3+4cbj73+Lz6aMe+7RShjPYyEmKRz/8nRqhBoaw5dAamvjCB62RrCXM/3MOr8x9g6OXb2Ns/hu8PncRe359Ea/PLeGIFf86MreE19/9rWdwXEPUnUBr7AruCLh89xUuF2cxU7yIT7/+FvqXHq8oU0RdwEMM1mVRZhaXvzShdP/zs0hZA48JrW9x5863+OwPR53vhRAzH36F++I6f1dw+V3/bz6hWtD6ZulbT52uoC6gp+u4M+cBfGoSny6L7wXQLhr1KlXvmNe5cwVHnQGxU2i9hj8tmbC6/7cvLPvM4nLtDr65YmcitlJmjX5z6slyPi3QLq3f+7RVz9gqvtAaOoK9R6bx4txtvP6Hafz7kWN4+vlzGMmVkZkVntYSMrkyRt5+s/XO6ABab1e+NVPMT/oHzH3p56zrvmQO3PcVzPjiUfvx208FuO7g8uvmsSa0dCxfeSuizvuRPf+F6xEtf4VSFLysNujLf8Fvvd5S5qIJ1ztXkLVuUPN6d/Hpyf2+62WKCu7r/8DnebtNnUHraPmOAcrlTyZ9APYOrK2U8ZbnZ7tP+E4tUANRGthyaA0GlgdfHvPGr7Z+efDgBcUcmD89jX1Rs7UXTFjc/58PfGAwjH3yL7iruyn2LkRWEWPqKKauKA687n990b+UZ0Hrm6IfRIODL6H0V+ER/sXKNPwAn/1dh/7XizgYrHdqFt/49mV1Aq0JfPqdDv1v1zweW7BdrZQJHsO/o25UfkddUAOmBrYeWoFEjLHpc3jaGWT34Ml/exm7A0/F2NREjNQkLv/Vitf881t880kRvz3gAcYJE0y+fVVimc/zsjftmtBSMOP1kJy2Bm7K9FuYqgovT4fuXcqzlgc/DXh+QtB/WhLXtfeYmSDy1iP02Un86ARa5jGRsHba1EqZQLudY/k9BylqgBoIa2DroTUYTnkffe8Unv6FVdlfvIZ0vornfrUOj3PKf2HEc8JeimsY/8Bvf78fB0/O4jPFgoj+D9Q/tGJHFrSWa2YsS8Szgq9zJ18yvDATWjZU7HOv9m4vMXqW8mxoRTwRw193CxhfXwvVx6nfaXuZsnNo3f10MuxhOuCxzrtqmdXaz984aFED1IBfAzGA1hAGR2aR9aa9W5+PzH3jPtLpowr2tuKhOAOmv6FGx79uJlXc//yPTWIwVhafJy4UFIx4asVnYllMeDSiPvY5o5YHA3VpH1pDGDx107fEuNpjnPzQOovPRXJI1PJgoF6Dg51Ayzr/KrYaHGylTEQ/herHMkEd8m9qYrtqIB7QGtwDkUUYfOZg8DFOo6eO4cmuBrS3zE28+l18dspOpLDFvx+//cT0pO6UbQ9kCKn0cyHA+RMs3sKf/yYyB4OJGPZ53ffm0Cri08+LOJp2y5qCtD0tUV/rt5Y9rf0497lY1gwnYoTF3gm09uP9/xGJJh6vM9Q3rZQJtpl/h/uHNqFNqAFbAzGBluiQPXj69YvIzPmfjmGA6/IXeP6IJ5U7NDi23qGpk9ewbO1Zuqt8hc/Ksyh98gW++ZuVun3nivvIpMEhvCNAtqwYj1UyltXKX5lJEn+96OzB8j6CyU4tN1LjawqWPY9gWg1a4oG1+j//geWoOi0VnWu17mkNYdBOxdf/geXaFWeZ8HJVwZ273mXKVqA1gT+L9Pm/f4U/vWDZ20mp13H367+gZG8J+NKT8t5KmS760xYy31u/B2gr2irJGogRtGwhmckXz2Q+wL8f+QB7DryAJ50nZNhluns3Hkzr3Qis67j/3R18/tFpZANLkAfzfwlsnL2Lb6p/9Gf0DQ5h33FzA7KT7PDPf+C+gN35446n1hxa+5F996IRM3M2MIs6LSv47MKEP2uxZU/LtNFqbXU3PncILQGb9IS5edne5GzV+/JpM45n3BytlCG4VokNdqf3JA9QrDv7PqiBGEKLnRTsJP5NTVAD1AA1YGqA0OIMnzN8aoAaoAYSowFCi2JNjFg506S3QQ1QA4QWoUVoUQPUADWQGA0QWhRrYsTKWTZn2dQANUBoEVqEFjVADVADidEAoUWxJkasnGVzlk0NUAOEFqFFaFED1AA1kBgNEFoUa2LEylk2Z9nUADXQNrQkSUK7r0wm0/Yx7V6D5dvvF9qMNqMGqIGkaYDQ6gDCSetk1pcDEzVADfSKBggtQoteMDVADVADidEAoUWxJkasvTJTZDvo9VADnWuA0CK0CC1qgBqgBhKjAUKLYk2MWDk77Xx2StvRdr2iAUKL0CK0qAFqgBpIjAYILYo1MWLtlZki20GvhxroXAPxhNYDu/DYw3vx+MN78dgOmYMqwUoNUAPUADVgaCBW0Hrw4XEcf03Bx+9953tdevs6Xn/0GYpWiPZMDbreQPlQ5zOV8Cwvh5quozHv2QTeynVaKWPfaO2UtY/hOzVPDVADAQ3EBlp9u65g7vd+WAXhdS71bHcdaAycOmpnmg/4mfkGdL2GXMBQ4YG++Tk6LSvvn0DppoKGpkPXPa/bRYzY9dmQwZ/Q6rTPeNz63we0KW26mgZiAa0H+y5gZg1gffzWBQw90GVnxhha8mgZqgDVSgPKYhXl6TyKV2uoLSpo3C4hQ2h1N2Gx7cd32pEaSLQGYgCtXTh82O9hXTo8hSEjliVj585TOPXaFRz4fpfAEkKNLbTSKCo6dK2GXGqNdtLTSvQNt9oMkr+toX3ChtqXJGw9tB4+j2lvDOudS9jveFS7MLTrfYz07fJ11p7Udbz38nnsaVfEsYWWuTynL+R87YwcxAittW3Uri5YnjalBhKjgS2H1oO7P/MlXUzv9catXsTx8e8wk37RZ9BXMsIzu45X2hVah9CSX8ijqjSgrVhxJrGENzvmq5OUGkdpUXXLaCrqs+NIeeroxMtS4ygvidiZDhNUY6g0dOiNCsblNWabDrT6kDlbg2rHv1YaqM/7r2dATx5B/oaChrfuN/IY8V2n25hWC3Vpt94eu0XCm7/79Ud70B7bRANbDq2n0v5swTM/twbtH53HuRMqLolY13+qmDtxBQdEsob4btJcTrx0QsXc8xOti7UTaB0oQhFwWa6hOJVHfqqA8qIK/abHK0rlUBPw0FRUZ0SZPIo3TShp1QnIlphMaKlQFBWVE2nnezEop87UoInr3Kuj+Kb/N9+gbQ3+9QXVU6ciagJ6ug7lfMq1h5xFWRXfC6AVjHoVrirmdZQihh2RdwetlurSTr2deq0BcJZz+5q2oC22iQbiC60dv8bI7g+RP/Ed5g59iMO7x/B4/3m89/J1nHtHQEvBuZev471UtnWxdgCtkY9UM8V81D+A9vX3WdcdQG5Bg67VkffFo2RkywJcCorPmsea0NKhzg5H1FlG+t2q6xGpNRSi4GW1QVfLyHq9pVTBhKtSRNoSr3m9Bsqj/r1uqak6NF1D9aTdpm6gpaOVutjxxJbKbpObzzcZYZsj7glbn3ynVlwNbDm0gsuD54a88autXx4cOFs3PBi1PIa+qIFl0ISFdm08fNONltHQ3RR7FyJuB4TEKKcxMVt34KUtFvxLeRa06lN+EEnSAAq3hEdYtjINx1G5p0O/VcBAsN5yHnXfvqzuoLV2XdwkmJbKBuvLv8Paok1ok22qgS2HlhRMxDhyHo87nSFj5w/CT8XY1EQMOYviLc2MP62oqM/nkH3CA4xDJph8+6rEMp/nZW/aNaFVR97rITltDYCsfxgTV4WXp0P3LuVZy2zlgOcn4JdbENe195iZIPLWI/TZSfzoBlrCkwvUPVQXG1otlm1mE37PgZoa2PYa2HpoSeGU97mRU3j8e9ZA+L0X8fqhBRzv84CiU+GerBrxnPBs3x10/QO//b2MgdE8KksWRHQNtTNW7MiClnrDjGWJeFbwNTk6YAjNhJYNFfvcq73bS4yepTwbWhFPxPDX3QSRtlgK1cep3zF7mbJLaK1ZFw+0Winbaf/yuG0/oIVWLqiJntNEDKAl4cHHLmHOm/ZufRaJFs5TMU5exyvd7tV61kyq0KqTviQIV+hWFp8nLuT+ZsJFPLWismx5NMJjss8ZtTwYuGHah5YE6WjFt8S42mOc/NCaQFUkh0QtDwbqJUmEVrCf+fdqkyn+Rn1snQZiAS1JkjGUXnIBFQEwAa+Z4TH8IDTgtmO8YXMTr95A5aidSGEfLyM7b3pSyoztgUiQ+/tCgPMnWAyjdFtkDgYTMezzuu/NoZVDuZrDcL9b1rwpbE9L1Nf6rWVPS8ZkVSxrhhMxwjccoRW2SbAv+DdtRA3EQQMxgZYQg4yB3VcwPeF/OobhaU0qeO/pF7sElik4ebQE1dqz1FiqoTKTR2G+ivptM26lKUX3kUmShIwAmVo3HqtkLKvN1MwkiVsFZw+W9xFMdmq5kRp/ow7V8wim1aAlHlirr2hQo+q0kHOu1bqnJUGyU/F1DeqNorNMWLxah9LwLlO2Aq0MSiJ9/l4NuUHr5m0ZoFwejMPNzjoQOr2ggRhByxaUmXyx52fv4/Du93Hg0Wew03lChl2mu3fjwbTejcC6Dm1ZQXV6DOlAksTAyTKUZSsRQ4BFa6B+ddKf0SdJ6HvV3IDsJDusaNAE7N4dcTy15tCSkX6zYMTMnA3Mok5qHZWzGX/WYjugkCSs1lZ34zOh1Qs3M9vQ3bhA+yXDfjGEVjIMR4Gzn6gBaoAa2HwNEFpdxcg2v8N4k9Dm1AA1sJ01QGgRWj2XErudb2i2nUDrdQ0QWoQWoUUNUAPUQGI0QGhRrIkRa6/PINk+eknUwNoaILQILUKLGqAGqIHEaIDQolgTI1bOQteehdJGtFGva4DQIrQILWqAGqAGEqMBQotiTYxYe30GyfbRS9ouGvhfP/oxOn21Da3//dhPwBdtQA1QA9QANdCpBgaefAqdvggtQpiTEGqAGqAGNlUDnQJLHEdoUaybKtZOZ2Y8jrN6aqB3NLCZ0Pr/QfiqvlEUM5sAAAAASUVORK5CYII=;" vertex="1" parent="WIyWlLk6GJQsqaUBKTNV-1">
          <mxGeometry x="1220" y="220" width="352" height="160" as="geometry" />
        </mxCell>
      </root>
    </mxGraphModel>
  </diagram>
</mxfile>
